Coordinates
version=1
nRows=14
nColumns=36
inDegrees=yes

Units are S.I. units (second, meters, Newtons, ...)
If the header above contains a line with 'inDegrees', this indicates whether rotational values are in degrees (yes) or radians (no).

endheader
time	pelvis_tilt	pelvis_list	pelvis_rotation	pelvis_tx	pelvis_ty	pelvis_tz	hip_flexion_r	hip_adduction_r	hip_rotation_r	knee_angle_r	knee_angle_r_beta	ankle_angle_r	subtalar_angle_r	mtp_angle_r	hip_flexion_l	hip_adduction_l	hip_rotation_l	knee_angle_l	knee_angle_l_beta	ankle_angle_l	subtalar_angle_l	mtp_angle_l	lumbar_extension	lumbar_bending	lumbar_rotation	arm_flex_r	arm_add_r	arm_rot_r	elbow_flex_r	pro_sup_r	arm_flex_l	arm_add_l	arm_rot_l	elbow_flex_l	pro_sup_l
      0.00000000	      2.23644737	     -0.90765940	     -7.34990026	      0.70661423	      1.35315415	     -0.05214729	     -3.00559626	     -1.76228948	      6.30405515	      1.83709076	      0.03206328	      5.25679978	     -8.45143317	     -6.39724602	     -4.26949117	     -0.69513931	      0.20496026	      4.19323745	      0.07318580	      9.68708454	     -6.07234623	     -6.39724602	     -9.55923846	      2.33985887	      0.64919799	      7.23280553	     -8.63698231	      8.72991924	     19.76923399	     90.31626283	      3.90541417	     -8.37659344	      4.20037877	     19.42644283	     90.71829188
      0.01666670	      1.63685265	     -0.59387072	     -7.65954845	      0.70712648	      1.35115383	     -0.05229888	     -2.90987506	     -2.12709563	      6.48778224	      0.66447228	      0.01159723	      5.91714651	     -7.41711250	     -6.69315997	     -4.10150788	     -0.40474725	     -1.93846039	      3.18116624	      0.05552183	      7.98672166	     -7.35833242	     -6.69315997	     -8.53589038	      2.18979229	      1.45348376	      7.46470738	     -8.38378681	      9.64764825	     17.92585757	     91.14342318	      4.20927826	     -7.76161223	      3.10103922	     17.74363920	     90.56769214
      0.03333330	      1.39378212	     -0.60878955	     -7.54587494	      0.70679697	      1.35166540	     -0.05246313	     -2.77620400	     -2.07425240	      6.37577906	      0.58221843	      0.01016163	      6.00340024	     -7.12527543	     -7.36054310	     -3.73814194	     -0.36723974	     -1.64667973	      2.77848574	      0.04849372	      7.79085802	     -7.88877171	     -7.36054310	     -8.60265806	      2.33273041	      1.01143867	      7.86181753	     -8.18260971	      8.47113990	     17.49638980	     97.91502026	      4.16984210	     -7.48095584	     -0.70203042	     17.67344161	     97.21657729
      0.05000000	      1.33655125	     -0.68348479	     -7.14202683	      0.70632314	      1.35067241	     -0.05348035	     -2.76978031	     -2.03125969	      5.52440237	      0.66253109	      0.01156335	      5.98706483	     -6.72144843	     -7.45167176	     -3.65482104	     -0.40383249	     -1.64707714	      2.66414464	      0.04649810	      7.85325165	     -7.93910217	     -7.45167176	     -8.51762244	      2.54688725	      0.32821445	      8.50819782	     -8.40260742	     12.83301616	     16.92155450	     95.04464248	      4.44824175	     -7.70874347	      2.08612544	     17.02138343	     94.57132956
      0.06666670	      1.29272692	     -0.68964509	     -6.97463634	      0.70562438	      1.34489665	     -0.05350213	     -2.67726889	     -1.98516909	      5.11190025	      0.75986611	      0.01326217	      6.13836836	     -6.62133875	     -7.47068467	     -3.45328810	     -0.41803772	     -1.53314143	      2.68542867	      0.04686957	      8.12054744	     -7.62042105	     -7.47068467	     -8.67010924	      2.54308087	     -0.06727710	      8.74576626	     -7.98381950	     10.53487745	     16.80931889	     98.71403230	      4.58228713	     -7.38455638	     -2.37793376	     17.21968172	     99.57526664
      0.08333330	      1.11655860	     -0.71495378	     -6.86002538	      0.70568548	      1.34482579	     -0.05378383	     -2.45807906	     -1.92412055	      4.90873481	      0.88077454	      0.01537242	      6.11546822	     -6.84253040	     -7.49185078	     -3.22010203	     -0.49262911	     -1.64242744	      2.73454896	      0.04772688	      8.22483003	     -7.31680737	     -7.49185078	     -8.54561305	      2.56984224	     -0.36053572	      8.88211314	     -7.90731562	     11.58490649	     16.79903536	     98.56329386	      4.57557416	     -7.44623783	     -2.89188618	     17.40274411	    100.43265521
      0.10000000	      0.89849202	     -0.66900765	     -6.82756982	      0.70556167	      1.34517590	     -0.05351467	     -2.19037938	     -1.92768598	      4.78447121	      0.97789522	      0.01706749	      5.94449234	     -7.05109929	     -7.49630219	     -2.90319964	     -0.53924317	     -1.49810964	      2.75901413	      0.04815388	      8.08713407	     -7.47274131	     -7.49630219	     -8.25703933	      2.45822268	     -0.38670635	      9.05033038	     -7.83438937	     14.46994456	     16.17627035	     91.90922904	      4.83360406	     -7.67355929	     -0.33701981	     16.78406898	     93.84763703
      0.11666670	      0.78333512	     -0.71204127	     -6.66871845	      0.70588975	      1.34518187	     -0.05368393	     -2.04632331	     -1.87365089	      4.51568093	      1.07230851	      0.01871531	      5.90855247	     -7.16187735	     -7.49892691	     -2.78671822	     -0.66578216	     -1.89638883	      2.74483413	      0.04790639	      7.82359089	     -6.99133955	     -7.49892691	     -8.25393425	      2.51876361	     -0.73351360	      8.99220544	     -7.97389680	     15.37974176	     16.74367809	     96.63162811	      4.62949118	     -7.87331079	     -1.18167103	     17.42841743	    100.07889196
      0.13333330	      0.76830556	     -0.71233440	     -6.67562941	      0.70575858	      1.34966659	     -0.05353823	     -2.05568101	     -1.87481962	      4.51401331	      1.07508019	      0.01876369	      5.90791765	     -7.16401512	     -7.49892697	     -2.76588752	     -0.67284553	     -1.89738531	      2.74078186	      0.04783567	      7.82354562	     -6.99116814	     -7.49892697	     -8.25308458	      2.51642475	     -0.73514373	      8.99031481	     -7.97100696	     15.37969387	     16.74423744	     96.63162906	      4.63228138	     -7.87545897	     -1.18250357	     17.42983611	    100.07880579
      0.15000000	      0.59969813	     -0.67151355	     -6.76565614	      0.70596886	      1.34962466	     -0.05330324	     -1.82833723	     -1.83331660	      4.71010059	      1.18012397	      0.02059705	      5.53383487	     -7.89237642	     -7.49947194	     -2.48604764	     -0.66910370	     -1.97732441	      2.75436745	      0.04807278	      8.10650731	     -6.19678938	     -7.49947194	     -8.18335849	      2.33183295	     -0.86605270	      8.84670381	     -7.68607181	     14.54136496	     17.05284423	     98.31480174	      4.41386438	     -7.90042583	     -3.26764391	     17.97983646	    102.81244443
      0.16666670	      0.50113837	     -0.70639322	     -6.76634890	      0.70588168	      1.34986211	     -0.05292781	     -1.70420057	     -1.73575195	      4.87088029	      1.27615301	      0.02227307	      5.58978032	     -8.15797683	     -7.49977427	     -2.37922960	     -0.70406121	     -1.81526541	      2.69143006	      0.04697432	      8.26042318	     -5.92018126	     -7.49977427	     -8.16405712	      2.32809012	     -0.97151806	      8.80590080	     -7.65859928	     15.00558414	     17.23937948	     98.45113242	      4.27743987	     -7.96684603	     -3.49340170	     18.25385663	    103.29417082
      0.18333330	      0.54638075	     -0.70018321	     -6.84307751	      0.70642884	      1.35256258	     -0.05313497	     -1.74031125	     -1.70237475	      5.07282765	      1.33667643	      0.02332940	      5.64656533	     -8.36947450	     -7.49986524	     -2.41968158	     -0.67319400	     -1.67259449	      2.62113926	      0.04574751	      8.37305355	     -5.60228445	     -7.49986524	     -8.23157136	      2.25932497	     -0.91459437	      8.82815038	     -7.81213549	     17.07772967	     17.25999186	     96.71294827	      4.36242512	     -8.21265648	     -1.54786799	     18.15917984	    101.70735805
      0.20000000	      0.58249721	     -0.70989536	     -6.86612915	      0.70564910	      1.35001214	     -0.05270238	     -1.75782211	     -1.66745458	      5.17382965	      1.35448214	      0.02364017	      5.77078283	     -8.49094996	     -7.49993862	     -2.47863514	     -0.67230440	     -1.49812251	      2.55707157	      0.04462932	      8.39644017	     -5.46692693	     -7.49993862	     -8.33814899	      2.23351988	     -1.03014375	      8.79249763	     -7.63167354	     15.74570547	     17.40256065	     98.62995497	      4.25871251	     -8.11525720	     -3.45328085	     18.44954824	    104.00069862
      0.21666670	      0.66781373	     -0.72666999	     -6.89724874	      0.70574894	      1.34971749	     -0.05280863	     -1.84533276	     -1.65393898	      5.33482121	      1.35650002	      0.02367539	      5.83270105	     -8.65488247	     -7.49995817	     -2.62591870	     -0.69046544	     -1.45384616	      2.51285190	      0.04385754	      8.20477212	     -5.56426701	     -7.49995817	     -8.43129543	      2.21944112	     -1.07975704	      8.85324927	     -7.68649402	     17.01793422	     17.38343428	     96.65950341	      4.32431939	     -8.25765108	     -2.26734148	     18.32534793	    102.20883724
